<?xml version="1.0"?>
<svg id="Layer_1" data-name="Layer 1" xmlns="http://www.w3.org/2000/svg" viewBox="0 0 330.65 278.97">
  <defs>
    
  </defs>
  <path class="cls-1" fill="#ffffff" d="M274.21,181.96c-.7-.63-1.73-.94-3.1-.94h-3.73v7.08h3.73c1.38,0,2.41-.3,3.1-.92.69-.63,1.04-1.5,1.04-2.62,0-1.13-.35-1.99-1.04-2.59Z"></path>
  <path class="cls-1" fill="#ffffff" d="M169.58,181.1h-4.29v14.35h4.29c2.19.01,3.94-.62,5.25-1.87,1.3-1.26,1.96-3.03,1.96-5.31s-.66-4.04-1.96-5.29c-1.31-1.25-3.06-1.88-5.25-1.88Z"></path>
  <polygon class="cls-1" fill="#ffffff" points="133.45 190.79 139.35 190.79 136.39 183.16 133.45 190.79"></polygon>
  <path class="cls-1" fill="#ffffff" d="M325.71,192.3l-.77.13L200.4,9.78c-5.56-7.69-12.53-10.85-20.92-9.46l-30.6,5.06c-9.81-2.41-17.77.65-23.9,9.19l-19.67,27.44c-3.28,4.58-4.76,10.2-4.46,16.88.29,6.66,1.87,12.18,4.73,16.54l31.54,46.81-24.58-7.23.33-.46c-3.69-1.28-7.64-1.57-11.85-.88l-34.85,6.17c-4.59-.04-9.14.86-13.67,2.69-4.54,1.82-8.01,4.41-10.42,7.75L4.73,182.43c-4.8,6.71-5.95,13.62-3.44,20.73,2.52,7.1,7.9,11.98,16.13,14.65h.01v-.02c17.75,4.87,35.51,9.87,53.29,15,17.78,5.12,35.54,10.12,53.29,15,16.9,4.74,34.59,9.68,53.06,14.83,18.46,5.15,36.29,10.19,53.5,15.13,6.79,2.1,13.68,1.5,20.67-1.79l30.6-5.06c7.86-1.29,13.97-4.98,18.35-11.08l25.56-35.69c3.06-4.26,4.68-9.43,4.88-15.5.21-6.08-1.44-11.52-4.92-16.33ZM82.99,203.42h-10.04l-12.79-30.27h10.98l7.23,17.69,7.4-17.69h10.01l-12.79,30.27ZM148.18,225.14c-.47.61-1.09,1.08-1.85,1.42-.77.32-1.59.48-2.48.48h0c-.92,0-1.74-.11-2.48-.33-.74-.23-1.44-.64-2.1-1.21-.17-.14-.3-.3-.4-.48-.08-.19-.13-.38-.13-.56,0-.3.1-.57.31-.79.22-.23.49-.35.81-.35.25,0,.47.08.67.25.5.41.99.71,1.48.92.5.21,1.11.31,1.83.31.47,0,.91-.07,1.31-.23.42-.15.75-.35,1-.6s.38-.54.38-.88c0-.39-.12-.72-.35-1-.24-.28-.6-.51-1.08-.69-.49-.19-1.1-.34-1.85-.46-.71-.09-1.33-.25-1.88-.46-.53-.22-.97-.5-1.33-.83-.36-.33-.64-.72-.81-1.17-.18-.46-.27-.97-.27-1.54,0-.84.21-1.57.65-2.17.44-.61,1.04-1.07,1.79-1.38.75-.32,1.57-.48,2.48-.48.84,0,1.63.14,2.35.4.72.25,1.31.57,1.77.96.39.31.58.66.58,1.04,0,.29-.11.56-.33.79-.22.24-.49.35-.79.35-.2,0-.38-.06-.54-.19-.21-.18-.49-.34-.83-.5-.35-.17-.72-.3-1.13-.42-.39-.11-.75-.17-1.08-.17-.57,0-1.05.07-1.44.21-.39.14-.68.33-.88.58s-.29.54-.29.88c0,.39.11.72.33.98.23.25.57.45,1,.6.43.14.95.27,1.56.4.78.14,1.46.31,2.06.5.59.2,1.09.45,1.48.77.39.31.68.69.88,1.15.21.46.31,1.03.31,1.71,0,.85-.24,1.58-.71,2.19ZM144.18,203.42l-2.02-5.27h-11.52l-2.02,5.27h-8.62s-23.88,0-23.88,0v-30.27h10.21v22.35h13.67v3.89l11.47-26.24h10.02l13.25,30.27h-10.56ZM168.71,225.67c0,.33-.11.62-.33.85-.22.22-.52.33-.9.33s-.66-.11-.9-.33c-.22-.23-.33-.52-.33-.85v-7.91l-3.23,4.93c-.13.16-.28.29-.46.4-.17.1-.34.14-.52.13-.18.02-.36-.03-.54-.13-.17-.11-.31-.24-.44-.4l-3.23-5.1v8.08c0,.33-.1.62-.31.85-.21.22-.49.33-.83.33-.32,0-.58-.11-.79-.33-.21-.23-.31-.52-.31-.85v-11.38c0-.32.11-.59.35-.83.25-.23.54-.35.88-.35h-.01c.18-.01.36.04.56.14.21.1.36.22.48.38l4.28,6.58,4.39-6.58c.25-.34.57-.52.96-.52.32,0,.6.11.85.33.25.22.38.51.38.85v11.38ZM186.6,226.63c-.22.21-.47.31-.75.31-.24,0-.45-.07-.65-.21-.2-.15-.34-.35-.44-.6l-1.02-2.36h-5.86l-1.02,2.39c-.08.25-.22.45-.42.58-.2.14-.41.21-.63.21-.35,0-.61-.1-.79-.29-.17-.21-.25-.45-.25-.73,0-.13.02-.25.06-.38l4.9-11.73c.09-.26.25-.46.46-.6.22-.15.46-.21.71-.19.23,0,.45.07.65.21.21.14.36.33.46.58l4.83,11.5c.07.17.1.32.1.46,0,.36-.12.65-.35.85ZM184.96,196.33c-1.43,2.28-3.44,4.03-6.02,5.25-2.58,1.22-5.56,1.83-8.92,1.83h-14.94v-30.26h14.94c3.36,0,6.33.61,8.92,1.83,2.58,1.22,4.59,2.97,6.02,5.25,1.43,2.28,2.15,4.96,2.15,8.04s-.72,5.79-2.15,8.06ZM189.51,173.15h10.21v30.27h-10.21v-30.27ZM201.79,225.14c-.47.61-1.09,1.08-1.85,1.42-.77.32-1.59.48-2.48.48h0c-.92,0-1.74-.11-2.48-.33-.74-.23-1.44-.64-2.1-1.21-.17-.14-.3-.3-.4-.48-.08-.19-.13-.38-.13-.56,0-.3.1-.57.31-.79.22-.23.49-.35.81-.35.25,0,.47.08.67.25.5.41.99.71,1.48.92.5.21,1.11.31,1.83.31.47,0,.91-.07,1.31-.23.42-.15.75-.35,1-.6s.38-.54.38-.88c0-.39-.12-.72-.35-1-.24-.28-.6-.51-1.08-.69-.49-.19-1.1-.34-1.85-.46-.71-.09-1.33-.25-1.88-.46-.53-.22-.97-.5-1.33-.83-.36-.33-.64-.72-.81-1.17-.18-.46-.27-.97-.27-1.54,0-.84.21-1.57.65-2.17.44-.61,1.04-1.07,1.79-1.38.75-.32,1.57-.48,2.48-.48.84,0,1.63.14,2.35.4.72.25,1.31.57,1.77.96.39.31.58.66.58,1.04,0,.29-.11.56-.33.79-.22.24-.49.35-.79.35-.2,0-.38-.06-.54-.19-.21-.18-.49-.34-.83-.5-.35-.17-.72-.3-1.13-.42-.39-.11-.75-.17-1.08-.17-.57,0-1.05.07-1.44.21-.39.14-.68.33-.88.58s-.29.54-.29.88c0,.39.11.72.33.98.23.25.57.45,1,.6.43.14.95.27,1.56.4.78.14,1.46.31,2.06.5.59.2,1.09.45,1.48.77.39.31.68.69.88,1.15.21.46.31,1.03.31,1.71,0,.85-.24,1.58-.71,2.19ZM220.36,225.65c0,.33-.12.62-.35.85-.23.23-.53.33-.92.33-.31,0-.58-.11-.83-.33-.24-.23-.35-.52-.35-.85v-4.57h-6.29v4.57c0,.33-.13.62-.38.85-.24.22-.52.33-.85.33-.36,0-.66-.11-.88-.33-.22-.23-.33-.52-.33-.85v-11.35c0-.33.11-.61.35-.83.23-.23.53-.35.9-.35h.01c.32,0,.59.12.83.35.23.22.35.5.35.83v4.53h6.29v-4.53c0-.33.13-.61.38-.83.25-.23.53-.35.85-.35,0,0,0,0,0,0h0s0,0,0,0c.38,0,.67.12.89.35.22.22.33.5.33.83v11.35ZM230.4,203.42h0l-.08-13.79-6.58,11.06h-4.5l-6.56-10.58v13.31h-9.31v-30.27h8.4l9.85,16.13,9.6-16.13h8.4l.08,30.27h-9.3ZM253.54,203.42h-10.21v-30.27h10.21v30.27ZM275.28,203.41l-5.15-7.6h.02s-2.77,0-2.77,0v7.6h-10.21v-30.27h14.58c2.79,0,5.22.47,7.29,1.4,2.08.92,3.69,2.24,4.81,3.98,1.13,1.72,1.69,3.74,1.69,6.04,0,2.17-.49,4.06-1.48,5.67-.97,1.61-2.39,2.9-4.23,3.85l6.35,9.33h-10.9ZM296.3,202.27c-1.08,1.06-2.45,1.58-4.08,1.58s-3.02-.53-4.1-1.58c-1.07-1.05-1.6-2.4-1.6-4.04s.53-2.97,1.6-4c1.08-1.03,2.45-1.54,4.1-1.54s3,.52,4.08,1.54c1.08,1.03,1.63,2.36,1.63,4s-.54,2.99-1.63,4.04Z"></path>
  <polygon class="cls-1" fill="#ffffff" points="178.85 221.52 182.78 221.52 180.8 216.93 178.85 221.52"></polygon>
</svg>